<svg  viewBox="0 0 111 90" fill="none" xmlns="http://www.w3.org/2000/svg">
<path fill-rule="evenodd" clip-rule="evenodd" d="M77.9394 54.539C97.413 57.4147 111 63.9187 111 71.4815C111 81.709 86.1518 90 55.5 90C24.8482 90 0 81.709 0 71.4815C0 63.9187 13.587 57.4147 33.0606 54.539C39.7493 55.8973 47.3883 56.6667 55.5 56.6667C63.4082 56.6667 70.8671 55.9354 77.4347 54.641L77.9394 54.539Z" fill="black"/>
<path fill-rule="evenodd" clip-rule="evenodd" d="M69.5463 24.09C87.1837 26.0511 99.9 31.6041 99.9 38.1481C99.9 46.3301 80.0214 52.963 55.5 52.963C30.9785 52.963 11.1 46.3301 11.1 38.1481C11.1 31.6041 23.8162 26.0511 41.4536 24.09C45.7736 24.7954 50.5196 25.1852 55.5 25.1852C60.3062 25.1852 64.894 24.8222 69.0914 24.1631L69.5463 24.09Z" fill="black"/>
<path d="M55.5 22.2222C73.8911 22.2222 88.8 17.2476 88.8 11.1111C88.8 4.97462 73.8911 0 55.5 0C37.1089 0 22.2 4.97462 22.2 11.1111C22.2 17.2476 37.1089 22.2222 55.5 22.2222Z" fill="black"/>
</svg>
